# xmcd
#
# Track frame offsets:
#	150
#	9050
#	23664
#	35114
#	43884
#	58227
#	67482
#	82077
#	99661
#	114653
#	129315
#	139328
#	154631
#
# Disc length: 2235 seconds
#
# Revision: 1
# Processed by: cddbd v1.5.2PL0 Copyright (c) Steve Scherf et al.
# Submitted via: audiograbber 1.83.01
#
DISCID=b808b90d
DTITLE=Das Stubalm-Duo - Wir jodeln durch das Alpenland
DYEAR=2011
DGENRE=Folklore
TTITLE0=Wir jodeln durch das Alpenland
TTITLE1=Im Schilchertal
TTITLE2=Als Freunde lernten wir uns kennen
TTITLE3=Endlich ist die Wochn aus
TTITLE4=Auerhan Jodler
TTITLE5=Wer verliebt ist in Tirol
TTITLE6=Puchberger Franzerl
TTITLE7=Mein Herz ist im Hochland
TTITLE8=Wenn hell die Sonne lacht
TTITLE9=Das Frühjahr kommt über`d Alm daher
TTITLE10=Hörts alle her, hörts uns alle zua
TTITLE11=Über`n Arnstoa
TTITLE12=Zigeunerliebe
EXTD=
EXTT0=Volksweisen Bearbeitung: Kiedl Hans
EXTT1=
EXTT2=
EXTT3=
EXTT4=
EXTT5=
EXTT6=
EXTT7=
EXTT8=
EXTT9=
EXTT10=
EXTT11=
EXTT12=
PLAYORDER=
